<?xml version="1.0" standalone="no"?><!DOCTYPE svg PUBLIC "-//W3C//DTD SVG 1.1//EN" "http://www.w3.org/Graphics/SVG/1.1/DTD/svg11.dtd"><svg t="1683705518204" class="icon" viewBox="0 0 1143 1024" version="1.1" xmlns="http://www.w3.org/2000/svg" p-id="5347" xmlns:xlink="http://www.w3.org/1999/xlink" width="223.2421875" height="200"><path d="M551.713676 443.011811c-34.285102-9.888304-131.179515-33.796667-216.705368-16.666577-105.212749 21.047534-168.096181 93.216203-170.702826 96.291346a19.886256 19.886256 0 0 0 2.158082 28.094944c3.757954 3.234632 8.373161 4.809583 12.968431 4.809583a19.81648 19.81648 0 0 0 15.126513-6.967665c0.563195-0.647923 56.399217-64.757425 148.274718-83.133522 66.701195-13.377121 144.30245 2.083322 183.531703 12.091242a28.503634 28.503634 0 0 0-14.015075 13.317313c-0.313994 0.48345-32.844719 47.637302-196.500135 64.847137C113.338851 577.012283 8.146039 762.398044 3.765081 770.28277a29.884209 29.884209 0 0 0 11.582872 40.609829 29.764592 29.764592 0 0 0 14.523447 3.797826 29.914113 29.914113 0 0 0 26.14619-15.32089c0.932013-1.654696 94.970579-166.167364 266.097047-184.174643 132.330824-13.940315 193.778857-47.233596 221.714313-71.221704-9.150668-15.315906-13.805747-32.490853-12.674373-50.263884 1.186198-18.729963 8.413033-36.154111 20.559099-50.697493zM558.312524 563.017144c-4.455718-4.435781-8.253544-9.245365-11.662616-14.229389-8.328304 27.511813-45.788229 125.68712-163.027429 156.956887-152.072544 40.535068-158.187941 86.128921-153.747176 103.82719a19.906192 19.906192 0 0 0 24.162549 14.50351 19.936096 19.936096 0 0 0 15.086641-20.484339c1.63476-3.967283 16.44728-30.447403 124.775044-59.339791 115.509743-30.801269 164.492732-115.564567 183.31739-162.429345-0.149521-0.149521-0.348882-0.249201-0.503386-0.403706l-18.401017-18.401017z" fill="#FD5A5A" p-id="5348"></path><path d="M465.933637 777.584366c-141.262195 65.201003-174.734901 203.956235-176.09554 209.832399a29.864272 29.864272 0 0 0 22.328428 35.785293c2.282683 0.528307 4.580318 0.797444 6.838081 0.797444a29.998841 29.998841 0 0 0 29.086765-23.026192c0.289073-1.171246 28.927276-116.466675 142.916891-169.07305 113.466293-52.367141 145.124814-169.083018 153.707304-220.034696-20.713604-1.908881-40.609828-9.19054-57.216597-21.765233-3.468881 28.423889-23.345169 142.15932-121.560348 187.484035z" fill="#FD5A5A" p-id="5349"></path><path d="M1112.396452 45.730265l-18.396033-18.376097c-19.198461-19.198461-43.824524-28.777755-69.562024-27.182867-25.617884 1.674632-48.808548 14.40383-64.951802 35.396539l-126.663989 155.067942c-28.658139 32.067211-78.264131 80.855823-110.660287 110.720096l-155.202511 126.818493a97.477544 97.477544 0 0 0-15.24613 14.83744c-12.146067 14.543382-19.372902 31.967531-20.559099 50.697493-1.131373 17.77303 3.523705 34.947977 12.674373 50.268868 0.956933 1.614824 1.754376 3.249584 2.820958 4.804599 3.409072 4.984024 7.206899 9.793607 11.662616 14.234373l18.401017 18.401017c0.149521 0.149521 0.348882 0.249201 0.503386 0.40869 3.154887 3.110031 6.778273 5.621979 10.282042 8.27348 16.606768 12.574693 36.502993 19.856352 57.216597 21.765233 3.603449 0.328946 7.167027 0.991821 10.785428 0.991821 24.008044 0 48.050976-7.301595 67.483687-22.253668l156.42858-127.810314c33.173664-29.654943 83.422596-80.776079 114.652491-114.712299l127.810314-156.493373c32.829767-42.339285 28.583378-107.774537-9.47463-145.857466zM681.966162 469.955445a19.871304 19.871304 0 0 1-14.09482 5.841277 19.86632 19.86632 0 0 1-14.09482-5.841277l-39.872193-39.872192a19.926128 19.926128 0 0 1 0-28.189641 19.926128 19.926128 0 0 1 28.18964 0l39.872193 39.872193a19.926128 19.926128 0 0 1 0 28.18964z m127.441497 21.78517c-3.578529 2.691373-7.76511 3.992203-11.931754 3.992203a19.846384 19.846384 0 0 1-15.963829-7.984406l-29.904145-39.872193a19.901208 19.901208 0 0 1 3.987219-27.895583 19.886256 19.886256 0 0 1 27.900567 3.987219l29.904145 39.872193a19.901208 19.901208 0 0 1-3.987219 27.900567z m32.047275-131.428716a19.871304 19.871304 0 0 1-14.094821 5.836292 19.86632 19.86632 0 0 1-14.09482-5.841276l-49.840241-49.840241a19.926128 19.926128 0 0 1 0-28.18964 19.926128 19.926128 0 0 1 28.18964 0l49.840242 49.840241a19.926128 19.926128 0 0 1 0 28.18964z m149.520723-9.968048a19.871304 19.871304 0 0 1-14.09482 5.836292 19.86632 19.86632 0 0 1-14.09482-5.841276l-39.872193-39.872193a19.926128 19.926128 0 0 1 0-28.18964 19.926128 19.926128 0 0 1 28.18964 0l39.872193 39.872192a19.926128 19.926128 0 0 1 0 28.189641z m4.984024-149.525707a19.871304 19.871304 0 0 1-14.09482 5.841276 19.86632 19.86632 0 0 1-14.09482-5.841276l-49.840241-49.840242a19.926128 19.926128 0 0 1 0-28.18964 19.926128 19.926128 0 0 1 28.18964 0l49.840241 49.840241a19.926128 19.926128 0 0 1 0 28.189641z" fill="#63B473" p-id="5350"></path><path d="M642.088985 401.893612a19.926128 19.926128 0 0 0-28.18964 0 19.926128 19.926128 0 0 0 0 28.189641l39.872193 39.872192a19.86632 19.86632 0 0 0 14.09482 5.841277 19.926128 19.926128 0 0 0 14.09482-34.030917l-39.872193-39.872193zM783.490733 423.972839a19.886256 19.886256 0 0 0-27.895583-3.992203 19.901208 19.901208 0 0 0-3.992203 27.900567l29.904145 39.872193a19.846384 19.846384 0 0 0 15.963829 7.979422c4.166644 0 8.34824-1.30083 11.931754-3.987219a19.901208 19.901208 0 0 0 3.992203-27.900567l-29.904145-39.872193zM791.609708 282.277034a19.926128 19.926128 0 0 0-28.18964 0 19.926128 19.926128 0 0 0 0 28.18964l49.840241 49.840241a19.86632 19.86632 0 0 0 14.09482 5.841276 19.926128 19.926128 0 0 0 14.094821-34.030916l-49.840242-49.840241zM946.114456 122.788262a19.926128 19.926128 0 0 0-28.18964 0 19.926128 19.926128 0 0 0 0 28.18964l49.840241 49.840242a19.86632 19.86632 0 0 0 14.09482 5.841276 19.926128 19.926128 0 0 0 14.09482-34.030917l-49.840241-49.840241zM951.09848 282.277034a19.926128 19.926128 0 0 0-28.18964 0 19.926128 19.926128 0 0 0 0 28.18964l39.872193 39.872193a19.86632 19.86632 0 0 0 14.09482 5.841276 19.926128 19.926128 0 0 0 14.09482-34.030917l-39.872193-39.872192z" fill="#D8F768" p-id="5351"></path></svg>