<?xml version="1.0" standalone="no"?><!DOCTYPE svg PUBLIC "-//W3C//DTD SVG 1.1//EN" "http://www.w3.org/Graphics/SVG/1.1/DTD/svg11.dtd"><svg t="1683705063016" class="icon" viewBox="0 0 1024 1024" version="1.1" xmlns="http://www.w3.org/2000/svg" p-id="2394" xmlns:xlink="http://www.w3.org/1999/xlink" width="200" height="200"><path d="M961.28 320c0-106.24-85.76-192-192-192s-192 85.76-192 192a191.744 191.744 0 0 0 230.4 188.16C774.4 624.64 712.96 704 641.28 704c-35.2 0-64 28.8-64 64s28.8 64 64 64c176.64 0 320-200.32 320-448 0-12.8-1.28-24.96-2.56-37.12 0.64-8.96 2.56-17.92 2.56-26.88z m-704-192c-106.24 0-192 85.76-192 192a191.744 191.744 0 0 0 230.4 188.16C262.4 624.64 200.96 704 129.28 704c-35.2 0-64 28.8-64 64s28.8 64 64 64c176.64 0 320-200.32 320-448 0-12.8-1.28-24.96-2.56-37.12 0.64-8.96 2.56-17.92 2.56-26.88 0-106.24-86.4-192-192-192z" p-id="2395"></path></svg>