<?xml version="1.0" standalone="no"?><!DOCTYPE svg PUBLIC "-//W3C//DTD SVG 1.1//EN" "http://www.w3.org/Graphics/SVG/1.1/DTD/svg11.dtd"><svg t="1684476452355" class="icon" viewBox="0 0 1024 1024" version="1.1" xmlns="http://www.w3.org/2000/svg" p-id="4555" xmlns:xlink="http://www.w3.org/1999/xlink" width="200" height="200"><path d="M316.5 179.6h393.6v39.456h-393.6zM316.5 808.396h393.6v39.456h-393.6zM316.5 441.764h393.6v39.456h-393.6zM316.5 540.164h393.6v39.456h-393.6z" fill="#FCC800" p-id="4556"></path><path d="M304.5 167.6v63.452h417.596V167.6H304.5z m393.596 39.456H328.5V191.6h369.596v15.456zM304.5 796.4v63.452h417.596V796.4H304.5z m393.596 39.452H328.5V820.4h369.596v15.452zM304.5 429.76v63.456h417.596V429.76H304.5z m393.596 39.46H328.5v-15.456h369.596v15.456zM304.5 528.16v63.456h417.596V528.16H304.5z m393.596 39.456H328.5v-15.456h369.596v15.456z" fill="#44294F" p-id="4557"></path><path d="M606.536 325.752l-130.836-39.112c-73.592-22-124.996-91.012-124.996-167.824h-72c0 53.6 16.924 104.652 48.936 147.64 32.016 42.984 76.084 73.82 127.436 89.168l130.836 39.112c51.448 15.38 87.38 63.624 87.38 117.324 0 54.496-35.072 101.628-87.268 117.292l-129.616 38.888c-51.344 15.4-95.392 46.272-127.388 89.276-31.996 43.008-48.908 94.068-48.908 147.668h72c0-78.048 50.228-145.556 124.984-167.984l129.62-38.888c82.884-24.868 138.576-99.72 138.576-186.252 0.004-85.272-57.056-161.884-138.756-186.308z" fill="#E8E6F4" p-id="4558"></path><path d="M606.536 325.752l-130.836-39.112c-73.592-22-124.996-91.012-124.996-167.824H305.216c4.468 44.332 20.672 86.248 47.628 122.44 32.016 42.984 76.084 73.82 127.436 89.168l130.836 39.112c51.448 15.38 87.38 63.624 87.38 117.324 0 39.776-22.344 71.392-49.092 98.172-18.172 18.196-37.18 36.46-63.376 44.32l-129.616 38.884c-33.836 10.148-64.472 27.056-90.612 49.688-4.008 4.636-34.832 36.976-36.776 39.588-19.964 26.832-34.004 56.808-41.768 88.572h-0.064c-0.12 0.488-0.2 0.992-0.316 1.48-0.808 3.4-1.524 6.828-2.188 10.272a248.776 248.776 0 0 0-2.46 15.184c-0.232 1.8-0.428 3.604-0.62 5.412-0.08 0.744-0.184 1.484-0.256 2.232h0.056a250.564 250.564 0 0 0-1.296 24.516h72c0-8.804 0.684-17.46 1.928-25.94a174.784 174.784 0 0 1 2.7-14.288c0.196-0.836 0.392-1.672 0.6-2.504 0.412-1.668 0.856-3.328 1.316-4.98 0.268-0.952 0.532-1.908 0.812-2.856 0.456-1.532 0.94-3.044 1.436-4.56 0.328-1 0.644-2 0.988-2.992a173.376 173.376 0 0 1 54.384-77.72c5.804-7.148 47.46-28.136 60.812-32.14l129.62-38.884c34.908-10.472 83.544-45.68 93.944-61.888 23.836-37.16 44.632-77.428 44.632-124.364 0.012-85.276-57.048-161.888-138.748-186.312z" fill="#8479B9" p-id="4559"></path><path d="M609.972 314.256l-130.836-39.112c-68.552-20.496-116.432-84.776-116.432-156.328v-12h-96v12c0 56.2 17.744 109.732 51.316 154.808C351.592 318.7 397.8 351.032 451.64 367.12l130.836 39.112c46.408 13.876 78.82 57.392 78.82 105.824 0 49.152-31.636 91.672-78.716 105.8l-129.616 38.884c-53.828 16.144-100.016 48.512-133.568 93.604-33.552 45.092-51.284 98.636-51.284 154.836v12h96v-12c0-72.712 46.792-135.596 116.432-156.492l129.62-38.888c88-26.404 147.128-105.872 147.128-197.748 0.004-90.528-60.58-171.864-147.32-197.796z m-6.704 372.564l-129.616 38.888c-76.016 22.8-128.296 89.228-133.168 167.476H292.412c2.324-46.604 18.192-90.808 46.24-128.508 30.448-40.92 72.364-70.292 121.212-84.944l129.616-38.888c57.312-17.2 95.82-68.952 95.82-128.784 0-58.96-39.452-111.928-95.944-128.816l-130.836-39.112c-48.856-14.6-90.784-43.94-121.248-84.84-28.064-37.684-43.936-81.876-46.264-128.472h48.092C344.148 208 397.484 275.784 472.264 298.14l130.836 39.112c76.66 22.916 130.196 94.8 130.196 174.808 0 81.192-52.256 151.424-130.028 174.76z" fill="#44294F" p-id="4560"></path><path d="M567.592 668.236l-129.62-38.884c-52.196-15.664-87.268-62.796-87.268-117.292 0-53.7 35.932-101.944 87.384-117.324l130.832-39.112c51.352-15.348 95.42-46.184 127.432-89.168 32.016-42.988 48.94-94.04 48.94-147.636h-72c0 76.812-51.4 145.824-124.996 167.824l-130.832 39.112c-81.7 24.42-138.76 101.032-138.76 186.308 0 86.536 55.688 161.384 138.576 186.252l129.624 38.884c74.756 22.428 124.98 89.932 124.98 167.984h72c0-53.604-16.912-104.664-48.908-147.668-31.996-43.008-76.044-73.876-127.384-89.28z" fill="#E8E6F4" p-id="4561"></path><path d="M567.592 668.236l-129.62-38.884c-52.196-15.664-87.268-62.796-87.268-117.292 0-39.256 19.22-75.58 49.648-98.296 1.152-1.544 25.604-15.4 37.736-19.024l130.832-39.112c29.888-8.932 100.412-48.5 127.432-89.168 29.664-44.644 48.94-94.04 48.94-147.636h-72c0 42.16-15.52 81.94-41.656 112.916-21.484 25.464-50.136 44.984-83.34 54.912l-130.832 39.112a192.58 192.58 0 0 0-67.996 36.54c-28.612 34.272-45.568 78.124-45.568 124.564 0 86.536 55.688 161.384 138.576 186.252l129.628 38.88c74.756 22.424 124.98 89.932 124.98 167.984h45.492c-4.464-44.336-20.66-86.26-47.6-122.468-31.996-43.008-76.044-73.876-127.384-89.28z" fill="#8479B9" p-id="4562"></path><path d="M441.524 406.236l130.832-39.112c53.844-16.088 100.052-48.42 133.624-93.496 33.572-45.084 51.316-98.612 51.316-154.808v-12h-96v12c0 71.552-47.88 135.836-116.432 156.328l-130.832 39.112c-86.744 25.92-147.328 107.26-147.328 197.8 0 91.88 59.128 171.348 147.132 197.748l129.62 38.888c69.64 20.896 116.428 83.78 116.428 156.492v12h96v-12c0-56.2-17.732-109.744-51.28-154.836-33.548-45.084-79.736-77.452-133.568-93.6l-129.616-38.888c-47.084-14.128-78.716-56.648-78.716-105.8 0-48.444 32.412-91.96 78.82-105.828z m-102.82 105.824c0 59.832 38.504 111.584 95.82 128.784l129.62 38.888c48.848 14.656 90.76 44.028 121.208 84.944 28.048 37.7 43.912 81.904 46.236 128.508h-48.076c-4.868-78.248-57.148-144.676-133.164-167.476l-129.62-38.888c-77.772-23.336-130.028-93.568-130.028-174.76 0-80.012 53.54-151.896 130.2-174.808l130.832-39.112c74.784-22.356 128.12-90.14 133.168-167.32h48.092c-2.328 46.596-18.2 90.788-46.264 128.472-30.464 40.9-72.392 70.24-121.248 84.84l-130.832 39.112c-56.488 16.876-95.944 69.848-95.944 128.816z" fill="#44294F" p-id="4563"></path><path d="M326.768 516.516l-23.988 0.704 0.004 0.188 0.008 0.26v0.064c2.16 66.584 43.124 126.036 104.48 151.564l9.22-22.156a1.088 1.088 0 0 0-0.1-0.044c-53.572-22.34-87.908-72.36-89.624-130.58z m28.86-91.428l-19.288-14.28a170.908 170.908 0 0 0-28.384 59.588l23.252 5.944a147.064 147.064 0 0 1 24.42-51.252z m340.448-282.272l-1.748 9.92c-13.008 73.928-67.628 135.516-139.16 156.9l-81.468 24.356 6.876 22.992 81.468-24.356c46.368-13.86 86.156-41.7 115.06-80.508 21.248-28.536 35.036-60.588 40.976-95.28l2.296-14.024h-24.3zM460.464 697.844c-45.716 14-84.988 41.684-113.572 80.064-21.248 28.528-35.036 60.584-40.976 95.276l-2.4 14.024h24.408l1.748-9.92c12.904-73.324 66.976-134.736 137.764-156.476l0.108-0.032 0.004-0.004-7.028-22.948c-0.028 0.044-0.036 0.004-0.056 0.016z m236.832-179.88c0 55.712-32.56 107.496-82.948 131.928l10.468 21.592c58.608-28.416 96.48-88.676 96.48-153.524h-24z" fill="#44294F" p-id="4564"></path></svg>