<?xml version="1.0" standalone="no"?><!DOCTYPE svg PUBLIC "-//W3C//DTD SVG 1.1//EN" "http://www.w3.org/Graphics/SVG/1.1/DTD/svg11.dtd"><svg t="1683705326675" class="icon" viewBox="0 0 1024 1024" version="1.1" xmlns="http://www.w3.org/2000/svg" p-id="3393" xmlns:xlink="http://www.w3.org/1999/xlink" width="200" height="200"><path d="M490.666667 116.010667a395.989333 395.989333 0 1 0 59.946666 787.498666 250.922667 250.922667 0 0 1-37.162666-62.933333 329.344 329.344 0 1 1 306.474666-334.762667 252.16 252.16 0 0 1 65.962667 31.018667A395.989333 395.989333 0 0 0 490.666667 116.010667z m385.152 488.405333a192.170667 192.170667 0 0 0-60.458667-37.12 329.728 329.728 0 0 1-240.938667 263.253333 191.317333 191.317333 0 0 0 42.794667 56.789334 396.8 396.8 0 0 0 258.602667-282.88z m-318.805334 111.786667a215.210667 215.210667 0 0 0 138.538667-139.861334 33.152 33.152 0 0 0 1.109333-15.104c-32.170667 8.661333-61.824 25.6-85.76 49.493334a191.146667 191.146667 0 0 0-53.888 105.429333z m-46.336-57.6A148.053333 148.053333 0 0 1 349.44 556.373333a33.322667 33.322667 0 0 0-65.152 10.026667v108.8a33.322667 33.322667 0 1 0 66.688 0v-0.213333a213.76 213.76 0 0 0 144.64 51.626666 250.624 250.624 0 0 1 14.976-67.968zM285.866667 447.616a214.741333 214.741333 0 0 1 344.533333-98.602667v-0.213333a33.322667 33.322667 0 0 1 66.688 0v108.8l-65.152 9.984a148.053333 148.053333 0 0 0-282.453333 0 33.322667 33.322667 0 1 1-63.573334-19.968z" fill="#000000" fill-opacity=".85" p-id="3394"></path><path d="M554.666667 746.026667c0 50.773333 20.224 99.413333 56.234666 135.253333a192.341333 192.341333 0 0 0 271.530667 0 191.018667 191.018667 0 0 0 0-270.592 192.341333 192.341333 0 0 0-271.530667 0A191.018667 191.018667 0 0 0 554.666667 746.026667z" fill="#0078FF" p-id="3395"></path><path d="M746.666667 597.333333L640 714.922667h53.333333V810.666667h106.666667v-95.744H853.333333L746.666667 597.333333zM682.666667 853.333333h128v42.666667h-128v-42.666667z" fill="#FFFFFF" p-id="3396"></path></svg>